<svg
      xmlns="http://www.w3.org/2000/svg"
      fillRule="evenodd"
      strokeLinejoin="round"
      strokeMiterlimit="2"
      clipRule="evenodd"
      viewBox="0 0 220 130"
    >
      <g transform="translate(-23.962 -137.18)">
        <path fill="none" d="M23.962 137.18H243.962V266.3H23.962z"></path>
        <clipPath id="a">
          <path d="M23.962 137.18H243.962V266.3H23.962z"></path>
        </clipPath>
        <g clipPath="url(#a)">
          <path
            fill="none"
            d="M0 0H652.29V629.07H0z"
            transform="translate(.962 .183)"
          ></path>
          <g fillRule="nonzero">
            <path
              fill="#ed6326"
              d="M517.5 941.22c0 93.304-75.633 168.93-168.93 168.93s-168.93-75.63-168.93-168.93c0-93.299 75.634-168.93 168.93-168.93S517.5 847.925 517.5 941.22z"
              transform="translate(9.924 -143.76) scale(.36402)"
            ></path>
            <path
              fill="#ef8a34"
              d="M313.63 975.26c-32.074-18.14-82.762-14.65-107.4 14.317-4.04 4.748-8.169 12.373-11.572 21.243 21.523 47.87 64.691 83.9 117.04 95.64 41.678-34.29 57.907-99.54 1.932-131.2zM261.96 852.79c-20.789-1.49-45.446 19.495-49.959 39.3-6.885 30.22 20.412 30.592 42.402 31.743 21.051 1.103 48.861-3.939 52.939-30.231 4.074-26.263-20.136-39.003-45.382-40.812zM459.56 877.06c-8.418-23.122-23.672-42.227-39.963-59.527-9.103-9.667-78.616-32.994-62.439 15.608 4.335 13.02 9.36 29.847 16.248 40.477 13.728 21.182 28.327 57.989 56.006 57.775 27.333-.211 38.197-32.222 30.148-54.333zM494.14 965.81c-.873-3.993-8.147-27.699-8.147-27.699-21.708-30.592-73.209 63.793-63.497 83.983 21.261 44.18 79.74-19.22 71.644-56.284z"
              transform="translate(9.924 -143.76) scale(.36402)"
            ></path>
            <path
              fill="#554e78"
              d="M347.81 1110.5c-26.337 0-53.076-6.18-78.04-19.21-39.556-20.66-67.524-54.78-81.214-93.81l.873.574a168.355 168.355 0 0013.733 29.226c23.336 39.61 62.364 68.85 108.54 79.2l.329-.27a169.855 169.855 0 0036.543 3.96c19.276 0 37.794-3.23 55.051-9.17.015 0 .039.01.054.01a169.541 169.541 0 01-55.865 9.49zM180.9 962.04l-.709-.513a168.823 168.823 0 01-1.151-15.819l.663.483c.154 5.35.557 10.635 1.197 15.849z"
              transform="translate(9.924 -143.76) scale(.36402)"
            ></path>
            <path
              fill="#f18251"
              d="M348.57 1110.2c-12.545 0-24.778-1.37-36.543-3.96 9.965-8.27 18.457-18.3 24.834-29.22 20.702 8.47 43.248 16.73 66.76 24.01-17.257 5.94-35.775 9.17-55.051 9.17zm87.936-24.74c-23.353-6.74-50.414-16.21-82.231-29.54 8.391-.05 16.843-.82 25.322-1.87 23.918 8.16 48.882 15.04 73.125 20.09a168.919 168.919 0 01-16.216 11.32zm-233.34-58.15c-5.462-9.21-10.08-19-13.733-29.226 2.774 1.821 5.552 3.626 8.35 5.426-1.09 2.32-2.138 4.79-3.125 7.36 2.54 5.65 5.385 11.14 8.508 16.44zm9.18-43.906a664.054 664.054 0 01-31.438-21.332 170.253 170.253 0 01-1.197-15.849c13.54 9.855 28.115 19.742 43.381 29.448-3.841 2.241-7.447 4.817-10.746 7.733z"
              transform="translate(9.924 -143.76) scale(.36402)"
            ></path>
            <path
              fill="#f2a15d"
              d="M311.7 1106.5c-46.172-10.35-85.2-39.59-108.54-79.2a168.434 168.434 0 01-8.508-16.44c.987-2.57 2.035-5.04 3.125-7.36 22.607 14.51 45.941 28.22 68.716 40.54 18.852 10.2 42.986 21.77 70.366 32.97-6.377 10.92-14.869 20.95-24.834 29.22l-.329.27zm-80.811-111.66a717.179 717.179 0 01-18.545-11.443c3.299-2.916 6.905-5.492 10.746-7.733l.686.436a85.937 85.937 0 007.113 18.74z"
              transform="translate(9.924 -143.76) scale(.36402)"
            ></path>
            <path
              fill="#554e78"
              d="M182.43 910.46a108 108 0 01-.496-.404c3.02-15.901 8.395-31.637 16.272-46.725 16.66-31.908 42.079-56.274 71.772-71.689-45.023 23.706-78.042 67.15-87.548 118.82z"
              transform="translate(9.924 -143.76) scale(.36402)"
            ></path>
            <path
              fill="#f18251"
              d="M486.41 939.49l-.422-1.381c-2.983-4.203-6.532-6.048-10.403-6.048-4.114 0-8.595 2.08-13.163 5.621-6.534-2.166-12.941-5.496-19.206-9.58 16.976-8.753 22.854-33.14 16.338-51.039-8.418-23.122-23.672-42.227-39.963-59.527-4.839-5.139-26.754-14.14-43.789-14.14-15.008 0-26.227 6.984-18.65 29.748 3.067 9.212 6.479 20.33 10.653 29.81-17.638-12.893-36.3-24.125-56.755-24.125-8.182 0-16.652 1.798-25.456 6.005-5.209 2.49-10.214 5.531-14.971 9.029a84.35 84.35 0 00-8.664-1.068c-.7-.05-1.409-.075-2.116-.075-20.315 0-43.482 20.237-47.843 39.375-3.851 16.903 2.992 24.468 13.619 28.054a114.808 114.808 0 00-1.46 5.722 131.53 131.53 0 00-2.283 12.863c-15.018-9.624-28.186-19.129-39.447-28.275 9.506-51.668 42.525-95.112 87.548-118.82 24.037-12.48 50.869-19.092 78.121-19.092 26.341 0 53.079 6.182 78.046 19.217 47.777 24.945 78.645 69.536 87.873 118.7.37 18.408-15.829 26.491-27.607 29.029z"
              transform="translate(9.924 -143.76) scale(.36402)"
            ></path>
            <path
              fill="#f2a15d"
              d="M225.62 920.15c-10.627-3.586-17.47-11.151-13.619-28.054 4.361-19.138 27.528-39.375 47.843-39.375.707 0 1.416.025 2.116.075a84.35 84.35 0 018.664 1.068c-21.413 15.746-37.788 40.742-45.004 66.286zM443.22 928.1c-24.476-15.955-46.729-43.394-65.41-57.645-3.3-2.517-6.632-5.04-10.001-7.503-4.174-9.48-7.586-20.598-10.653-29.81-7.577-22.764 3.642-29.748 18.65-29.748 17.035 0 38.95 9.001 43.789 14.14 16.291 17.3 31.545 36.405 39.963 59.527 6.516 17.899.638 42.286-16.338 51.039zM478.56 940.43h-.021c-5.442-.005-10.817-.995-16.109-2.748 4.568-3.541 9.049-5.621 13.163-5.621 3.871 0 7.42 1.845 10.403 6.048l.422 1.381c-3.032.654-5.771.94-7.858.94z"
              transform="translate(9.924 -143.76) scale(.36402)"
            ></path>
            <path
              fill="#7d0d98"
              d="M209.06 829.36s-57.439-13.604-72.556 10.581c-15.116 24.185 53.128 94.746 187.43 151.91 147.38 62.725 231.86 70.885 253.19 48.365 13.604-14.36-44.591-64.237-44.591-64.237l3.779-10.581s96.739 58.198 60.462 99.008-188.66 9.3-281.9-37.03c-124.7-61.978-245.71-155.45-224.47-194.99 21.917-40.813 123.95-10.581 123.95-10.581l-5.29 7.557z"
              transform="translate(9.924 -143.76) scale(.36402)"
            ></path>
            <path
              fill="#7d0d98"
              d="M145.57 803.67c-6.046 1.511-88.964-4.68-75.579 39.3 10.581 34.767 81.746 116.16 218.42 182.89 160.98 78.61 225.93 75.65 272.84 77.09 98.251 3.03 53.66-65.75 53.66-65.75s64.75 65.58 6.046 81.63c-113.37 30.98-277.74-33.32-354.46-74.83-92.204-49.878-193.48-122.43-219.18-179.87-18.497-41.348 8.559-60.757 33.254-68.02 25.698-7.558 64.998 7.558 64.998 7.558z"
              transform="translate(9.924 -143.76) scale(.36402)"
            ></path>
            <path
              fill="#bf37b0"
              d="M177.2 929.04c-3.194 0-5.308-1.55-8.164-3.127-22.386-12.362-32.887-37.966-53.66-51.396-10.726-6.933-15.211-17.491-16.685-30.021-1.368-11.645 6.894-22.928 18.157-25.714l3.779-1.511c6.128-.021 11.646-.715 17.344-1.551 2.744-.402 8.818-2.241 13.331-2.241 1.652 0 3.095.247 4.088.901 8.692 5.72-7.112 5.328-9.822 5.875-5.512 1.113-10.066 3.304-15.116 5.329-10.985 4.405-18.374 10.735-15.094 24.147 2.482 10.149 13.978 17.388 20.18 25.903 7.294 10.013 16.845 16.137 23.824 26.095 6.537 9.33 21.055 14.102 18.59 27.283-.258.019-.508.028-.752.028z"
              transform="translate(9.924 -143.76) scale(.36402)"
            ></path>
            <path
              fill="#bf37b0"
              d="M119.96 931.67c-3.558 0-9.486-4.568-11.464-6.18-10.312-8.408-18.35-16.511-28.114-25.657-10.805-10.119-12.251-19.416-17.193-32.686-4.262-11.439-13.458-21.943-12.888-34.01.507-10.732 8.073-28.813 21.201-29.475l5.291-3.023c1.868-1.021 4.409-1.683 6.817-1.683 1.97 0 3.851.444 5.199 1.496-6.213 4.93-15.648 5.867-22.007 10.58-6.523 4.836-7.891 14.984-6.676 22.861 2.956 19.159 14.502 42.976 27.398 58.911 4.652 5.75 10.604 7.663 15.193 13.473 2.948 3.733 5.821 7.518 9.41 10.938 2.204 2.099 10.503 7.341 10.615 10.377.11 3.005-1.057 4.078-2.782 4.078z"
              transform="translate(9.924 -143.76) scale(.36402)"
            ></path>
            <path
              fill="#9e22a4"
              d="M544.76 1071c-3.103 0-6.067-.15-8.783-.43-19.079-1.94-37.488-7.4-56.622-10.19-22.723-3.32-44.648-8.9-66.946-12.79-13.606-2.37-43.218-6.62-49.875-20.15l-4.534-2.27c-3.228-3.61-23.159-10.49-9.831-10.49.569 0 1.199.01 1.892.04 7.132.27 18.069 8.6 24.691 11.87 17.26 8.5 35.155 13.23 53.595 17.79 17.847 4.42 35.532 6.08 54.35 8 18.083 1.85 35.869 7.67 54.414 7.93.465.01.929.01 1.394.01 18.088 0 36.414-5.02 47.347-19.34 2.522-3.3 6.056-6.81 8.732-6.81 2.073 0 3.63 2.11 3.8 8.06.188 6.59-7.738 13.71-12.813 17.8-9.821 7.92-26.75 10.97-40.811 10.97z"
              transform="translate(9.924 -143.76) scale(.36402)"
            ></path>
          </g>
        </g>
      </g>
    </svg>