<svg width="100%" height="100%" viewBox="0 0 227 260" version="1.1" xmlns="http://www.w3.org/2000/svg" xmlns:xlink="http://www.w3.org/1999/xlink" xml:space="preserve" xmlns:serif="http://www.serif.com/" style="fill-rule:evenodd;clip-rule:evenodd;stroke-linejoin:round;stroke-miterlimit:2;">
    <g transform="matrix(1,0,0,1,-40,-42)">
        <g transform="matrix(1,0,0,1,-0.1315,-0.00809105)">
            <rect id="Artboard3" x="40.131" y="42.008" width="226" height="259.993" style="fill:none;"/>
            <clipPath id="_clip1">
                <rect id="Artboard31" serif:id="Artboard3" x="40.131" y="42.008" width="226" height="259.993"/>
            </clipPath>
            <g clip-path="url(#_clip1)">
                <g transform="matrix(0.5,0,0,0.501814,8.608,-30.5768)">
                    <g transform="matrix(1,0,0,1,-3.78684,-1.19904e-14)">
                        <path d="M67.097,466.345C79.553,463.712 91.814,463.531 101.909,468.185C118.849,475.993 115.308,490.787 130.74,496.126C158.843,505.849 189.751,463.422 225.734,471.694C247.331,476.659 249.551,495.013 264.565,493.831C287.94,491.988 290.739,446.849 317.894,443.753C330.035,442.368 331.995,451.106 349.559,454.146C382.878,459.915 402.002,433.007 431.72,433.224C467.933,433.49 477.832,481.617 497.882,478.712C508.225,477.214 514.091,463.95 519.097,449.006L519.097,650.044C519.097,655.228 516.046,659.704 511.644,661.775L77.596,662.767C71.619,661.618 67.097,656.355 67.097,650.044L67.097,466.345Z" style="fill:white;"/>
                    </g>
                    <g transform="matrix(1,0,0,0.996384,-465,2.16431)">
                        <path d="M980.31,155.956L980.31,273.333C980.167,273.351 980.023,273.369 979.878,273.389C945.699,277.927 935.74,308.878 911.716,306.173C895.151,304.307 893.399,288.861 878.218,289.103C861.986,289.363 859.72,307.09 833.055,318.636C825.795,321.779 805.435,330.596 788.891,324.867C763.888,316.211 772.585,282.986 750.394,275.827C731.915,269.866 704.545,286.02 690.897,298.451C670.395,317.127 669.971,337.328 656.4,338.145C646.015,338.768 641.817,327.207 625.735,326.493C614.871,326.012 610.846,331.024 602.57,332.725C576.167,338.153 557.865,299.312 528.31,290.705L528.31,155.956C528.31,149.011 533.785,143.336 540.651,143.014C684.628,143.376 828.605,143.738 972.581,144.099C977.131,146.11 980.31,150.665 980.31,155.956Z" style="fill:white;"/>
                    </g>
                </g>
            </g>
        </g>
    </g>
</svg>
